<svg width="1600" height="900" viewBox="0 0 1600 900" fill="none" xmlns="http://www.w3.org/2000/svg">
  <defs>
    <linearGradient id="bg" x1="0" y1="0" x2="1600" y2="900" gradientUnits="userSpaceOnUse">
      <stop offset="0" stop-color="#0D1B2E"/>
      <stop offset="0.45" stop-color="#17385D"/>
      <stop offset="1" stop-color="#2F6D8A"/>
    </linearGradient>
    <linearGradient id="runway" x1="0" y1="650" x2="1600" y2="900" gradientUnits="userSpaceOnUse">
      <stop offset="0" stop-color="#111D31"/>
      <stop offset="1" stop-color="#0A1424"/>
    </linearGradient>
    <linearGradient id="board" x1="0" y1="0" x2="1" y2="1">
      <stop offset="0" stop-color="#0B111B"/>
      <stop offset="1" stop-color="#1B2A3D"/>
    </linearGradient>
    <linearGradient id="alert" x1="0" y1="0" x2="1" y2="1">
      <stop offset="0" stop-color="#FFD978"/>
      <stop offset="1" stop-color="#F59E0B"/>
    </linearGradient>
    <filter id="softShadow" x="-60" y="-60" width="1720" height="1020" filterUnits="userSpaceOnUse" color-interpolation-filters="sRGB">
      <feDropShadow dx="0" dy="10" stdDeviation="16" flood-color="#000" flood-opacity="0.28"/>
    </filter>
  </defs>

  <rect width="1600" height="900" fill="url(#bg)"/>
  <rect y="650" width="1600" height="250" fill="url(#runway)"/>

  <g opacity="0.18">
    <circle cx="1270" cy="170" r="90" fill="#D6F2FF"/>
    <circle cx="1270" cy="170" r="130" stroke="#D6F2FF" stroke-width="1.5"/>
    <circle cx="1270" cy="170" r="170" stroke="#D6F2FF" stroke-width="1"/>
  </g>

  <g opacity="0.45">
    <rect x="90" y="420" width="30" height="230" fill="#12253D"/>
    <rect x="132" y="380" width="44" height="270" fill="#16304F"/>
    <rect x="192" y="410" width="38" height="240" fill="#132B47"/>
    <rect x="244" y="352" width="52" height="298" fill="#1A365A"/>
    <rect x="312" y="398" width="46" height="252" fill="#17304F"/>
    <rect x="372" y="332" width="58" height="318" fill="#20426C"/>
    <rect x="446" y="384" width="42" height="266" fill="#183556"/>
    <rect x="500" y="422" width="64" height="228" fill="#1A3556"/>
  </g>

  <g filter="url(#softShadow)">
    <rect x="220" y="115" width="1160" height="480" rx="24" fill="url(#board)"/>
    <rect x="252" y="150" width="1096" height="64" rx="12" fill="#111C2C"/>
    <text x="280" y="192" fill="#DDF6FF" font-family="Arial, sans-serif" font-size="32" font-weight="700">
      HAMAD INTERNATIONAL AIRPORT
    </text>
    <text x="1010" y="192" fill="#9ED3EA" font-family="Arial, sans-serif" font-size="24" font-weight="600">
      LIVE STATUS
    </text>

    <rect x="252" y="236" width="1096" height="54" rx="10" fill="#0F1A2A"/>
    <text x="280" y="271" fill="#9CC2D4" font-family="Arial, sans-serif" font-size="22" font-weight="700">
      FLIGHT
    </text>
    <text x="438" y="271" fill="#9CC2D4" font-family="Arial, sans-serif" font-size="22" font-weight="700">
      ROUTE
    </text>
    <text x="804" y="271" fill="#9CC2D4" font-family="Arial, sans-serif" font-size="22" font-weight="700">
      LOCAL TIME
    </text>
    <text x="1070" y="271" fill="#9CC2D4" font-family="Arial, sans-serif" font-size="22" font-weight="700">
      STATUS
    </text>

    <rect x="252" y="306" width="1096" height="62" rx="10" fill="#102134"/>
    <text x="280" y="345" fill="#EAF7FF" font-family="monospace" font-size="28" font-weight="700">QR240</text>
    <text x="438" y="345" fill="#D7EEFF" font-family="Arial, sans-serif" font-size="24">DOH - LHR</text>
    <text x="804" y="345" fill="#D7EEFF" font-family="Arial, sans-serif" font-size="24">14:35</text>
    <rect x="1060" y="320" width="256" height="34" rx="8" fill="#E11D48"/>
    <text x="1102" y="344" fill="#FFF5F7" font-family="Arial, sans-serif" font-size="20" font-weight="700">SUSPENDED</text>

    <rect x="252" y="382" width="1096" height="62" rx="10" fill="#102134"/>
    <text x="280" y="421" fill="#EAF7FF" font-family="monospace" font-size="28" font-weight="700">QR102</text>
    <text x="438" y="421" fill="#D7EEFF" font-family="Arial, sans-serif" font-size="24">DOH - JFK</text>
    <text x="804" y="421" fill="#D7EEFF" font-family="Arial, sans-serif" font-size="24">17:10</text>
    <rect x="1060" y="396" width="256" height="34" rx="8" fill="#F59E0B"/>
    <text x="1132" y="420" fill="#FFFAEF" font-family="Arial, sans-serif" font-size="20" font-weight="700">DELAYED</text>

    <rect x="252" y="458" width="1096" height="62" rx="10" fill="#102134"/>
    <text x="280" y="497" fill="#EAF7FF" font-family="monospace" font-size="28" font-weight="700">QR658</text>
    <text x="438" y="497" fill="#D7EEFF" font-family="Arial, sans-serif" font-size="24">DOH - CMB</text>
    <text x="804" y="497" fill="#D7EEFF" font-family="Arial, sans-serif" font-size="24">20:20</text>
    <rect x="1060" y="472" width="256" height="34" rx="8" fill="#16A34A"/>
    <text x="1134" y="496" fill="#F0FFF4" font-family="Arial, sans-serif" font-size="20" font-weight="700">BOARDING</text>
  </g>

  <g>
    <circle cx="126" cy="180" r="72" fill="url(#alert)"/>
    <path d="M126 133L160 197H92L126 133Z" fill="#5A3300"/>
    <rect x="121" y="157" width="10" height="22" rx="5" fill="#FFD978"/>
    <rect x="121" y="184" width="10" height="10" rx="5" fill="#FFD978"/>
  </g>

  <g opacity="0.75">
    <rect x="980" y="662" width="528" height="168" rx="18" fill="#0F2137"/>
    <text x="1010" y="710" fill="#DFF4FF" font-family="Arial, sans-serif" font-size="30" font-weight="700">
      DOH Flight Status & Closures
    </text>
    <text x="1010" y="750" fill="#9BC8E0" font-family="Arial, sans-serif" font-size="22">
      Check official status first. Rebook smart.
    </text>
    <text x="1010" y="790" fill="#9BC8E0" font-family="Arial, sans-serif" font-size="22">
      Protect your time and rights.
    </text>
  </g>

  <g opacity="0.18">
    <path d="M0 772C160 744 352 758 550 792C770 830 980 854 1178 814C1362 778 1490 764 1600 774V900H0V772Z" fill="#B8DFFF"/>
  </g>

  <g opacity="0.01">
    <text x="20" y="884" fill="#FFFFFF" font-family="monospace" font-size="10">
      hamad international airport flight status closures cover art padding text hamad international airport flight status closures cover art padding text hamad international airport flight status closures cover art padding text hamad international airport flight status closures cover art padding text hamad international airport flight status closures cover art padding text hamad international airport flight status closures cover art padding text hamad international airport flight status closures cover art padding text hamad international airport flight status closures cover art padding text hamad international airport flight status closures cover art padding text hamad international airport flight status closures cover art padding text hamad international airport flight status closures cover art padding text hamad international airport flight status closures cover art padding text hamad international airport flight status closures cover art padding text hamad international airport flight status closures cover art padding text hamad international airport flight status closures cover art padding text hamad international airport flight status closures cover art padding text
    </text>
  </g>
</svg>
