<svg width="1600" height="900" viewBox="0 0 1600 900" fill="none" xmlns="http://www.w3.org/2000/svg">
  <defs>
    <linearGradient id="bg" x1="0" y1="0" x2="1600" y2="900" gradientUnits="userSpaceOnUse">
      <stop offset="0" stop-color="#0B1F34"/>
      <stop offset="0.45" stop-color="#16466F"/>
      <stop offset="1" stop-color="#2A7C92"/>
    </linearGradient>
    <linearGradient id="runway" x1="0" y1="620" x2="1600" y2="900" gradientUnits="userSpaceOnUse">
      <stop offset="0" stop-color="#0E1C2D"/>
      <stop offset="1" stop-color="#081421"/>
    </linearGradient>
    <linearGradient id="panel" x1="0" y1="0" x2="1" y2="1">
      <stop offset="0" stop-color="#0D1724"/>
      <stop offset="1" stop-color="#1C3047"/>
    </linearGradient>
  </defs>

  <rect width="1600" height="900" fill="url(#bg)"/>
  <rect y="620" width="1600" height="280" fill="url(#runway)"/>
  <rect x="206" y="116" width="1188" height="486" rx="24" fill="url(#panel)"/>
  <rect x="240" y="150" width="1120" height="74" rx="12" fill="#69263B"/>
  <text x="274" y="197" fill="#FFF3F8" font-family="Arial, sans-serif" font-size="33" font-weight="700">HAMAD INTERNATIONAL AIRPORT</text>
  <text x="1032" y="197" fill="#FFC7D6" font-family="Arial, sans-serif" font-size="23" font-weight="700">STATUS UPDATE</text>

  <rect x="240" y="242" width="1120" height="54" rx="10" fill="#0F1A2A"/>
  <text x="272" y="276" fill="#A5C4DA" font-family="Arial, sans-serif" font-size="21" font-weight="700">FLIGHT</text>
  <text x="430" y="276" fill="#A5C4DA" font-family="Arial, sans-serif" font-size="21" font-weight="700">ROUTE</text>
  <text x="784" y="276" fill="#A5C4DA" font-family="Arial, sans-serif" font-size="21" font-weight="700">LOCAL TIME</text>
  <text x="1038" y="276" fill="#A5C4DA" font-family="Arial, sans-serif" font-size="21" font-weight="700">STATUS</text>

  <rect x="240" y="314" width="1120" height="64" rx="10" fill="#11243A"/>
  <text x="272" y="353" fill="#EAF7FF" font-family="monospace" font-size="28" font-weight="700">QR312</text>
  <text x="430" y="353" fill="#D8EEFF" font-family="Arial, sans-serif" font-size="24">DOH - CDG</text>
  <text x="784" y="353" fill="#D8EEFF" font-family="Arial, sans-serif" font-size="24">14:15</text>
  <rect x="1036" y="329" width="286" height="34" rx="8" fill="#D92D20"/>
  <text x="1090" y="352" fill="#FFF1EE" font-family="Arial, sans-serif" font-size="20" font-weight="700">SUSPENDED</text>

  <rect x="240" y="390" width="1120" height="64" rx="10" fill="#11243A"/>
  <text x="272" y="429" fill="#EAF7FF" font-family="monospace" font-size="28" font-weight="700">QR706</text>
  <text x="430" y="429" fill="#D8EEFF" font-family="Arial, sans-serif" font-size="24">DOH - JFK</text>
  <text x="784" y="429" fill="#D8EEFF" font-family="Arial, sans-serif" font-size="24">16:50</text>
  <rect x="1036" y="405" width="286" height="34" rx="8" fill="#F59E0B"/>
  <text x="1118" y="428" fill="#FFF9E9" font-family="Arial, sans-serif" font-size="20" font-weight="700">DELAYED</text>

  <rect x="240" y="466" width="1120" height="64" rx="10" fill="#11243A"/>
  <text x="272" y="505" fill="#EAF7FF" font-family="monospace" font-size="28" font-weight="700">QR654</text>
  <text x="430" y="505" fill="#D8EEFF" font-family="Arial, sans-serif" font-size="24">DOH - CMB</text>
  <text x="784" y="505" fill="#D8EEFF" font-family="Arial, sans-serif" font-size="24">20:10</text>
  <rect x="1036" y="481" width="286" height="34" rx="8" fill="#16A34A"/>
  <text x="1114" y="504" fill="#F1FFF4" font-family="Arial, sans-serif" font-size="20" font-weight="700">BOARDING</text>

  <rect x="934" y="652" width="584" height="168" rx="18" fill="#0E253E" fill-opacity="0.94"/>
  <text x="970" y="704" fill="#E7F4FF" font-family="Arial, sans-serif" font-size="34" font-weight="700">DOH Flight Status and Closures</text>
  <text x="970" y="748" fill="#A7D1EB" font-family="Arial, sans-serif" font-size="23">Verify official channels first.</text>
  <text x="970" y="782" fill="#A7D1EB" font-family="Arial, sans-serif" font-size="23">Rebook fast. Keep receipts. Protect rights.</text>
</svg>